<svg width="1217" height="1376" viewBox="0 0 1217 1376" fill="none" xmlns="http://www.w3.org/2000/svg">
<path 
d="M1206.51 26.509C1169.18 46.6757 1028.18 96.2168 964.01 60.009C874.51 9.50903 832.512 14.509 774.012 42.509C715.512 70.509 672.011 7.00899 615.01 21.009C558.01 35.009 508.009 76.3471 464.51 50.3471C427.362 28.143 395.012 -8.99099 448.512 3.50901C502.012 16.009 369.01 99.509 254.01 60.009C86.4407 2.45248 36.0103 100.509 17.0103 50.3471C9.81829 31.3596 67.6426 -43.2909 72.5106 60.009C77.011 155.509 48.5106 106.509 48.5106 236.009C46.1773 250.342 51.2106 285.909 90.0107 313.509C138.511 348.009 96.5106 402.509 72.5106 424.009C48.5106 445.509 2.01047 446.009 1.01046 500.509C0.210462 544.109 45.5103 580.509 58.5104 611.009C63.0106 630.009 80.1103 678.009 58.5104 738.009C31.5106 813.009 -3.48952 862.509 14.0105 918.509C31.5106 974.509 3.5105 1003.01 90.0107 1004.01C159.211 1004.81 124.844 947.342 99.0107 918.509C74.1773 894.509 29.3106 890.208 48.5106 1065.01C48.0106 1072.67 53.6106 1094.61 80.0106 1121.01C106.411 1147.41 70.0107 1192.01 48.5106 1211.01C34.0106 1221.17 6.8105 1253.21 14.0105 1300.01C23.0105 1358.51 86.5107 1362.51 119.511 1372.51" 
stroke="#FF0000" stroke-width="2" stroke-dasharray="4 4"/>

<circle cx="1212.01" cy="23.509" r="4.5" fill="#FF0000"/>
<circle cx="120.01" cy="1371.51" r="4.5" fill="#FF0000"/>
</svg>
